<?xml version="1.0" encoding="utf-8"?>
<!-- Generator: Adobe Illustrator 24.3.0, SVG Export Plug-In . SVG Version: 6.00 Build 0)  -->
<svg version="1.1" id="Layer_1" xmlns="http://www.w3.org/2000/svg" xmlns:xlink="http://www.w3.org/1999/xlink" x="0px" y="0px"
	 viewBox="0 0 1200 1200" style="enable-background:new 0 0 1200 1200;" xml:space="preserve">
<style type="text/css">
	.st0{fill:#DB1E39;}
	.st1{fill:#FFFFFF;}
</style>
<g>
	<g>
		<g>
			<path d="M642.41,540.62c-2.09,3.85-5.35,6.96-9.79,9.32s-10.04,3.54-16.8,3.54h-13.8v31.61h-16.51v-82.32h30.31
				c6.37,0,11.79,1.1,16.27,3.3c4.48,2.2,7.84,5.23,10.08,9.08c2.24,3.85,3.36,8.22,3.36,13.09
				C645.53,532.65,644.49,536.77,642.41,540.62z M625.25,537.03c2.2-2.08,3.3-5.01,3.3-8.79c0-8.02-4.48-12.03-13.44-12.03h-13.09
				v23.94h13.09C619.67,540.15,623.05,539.11,625.25,537.03z"/>
			<path d="M682.03,521.76c3.42-1.96,7.33-2.95,11.73-2.95v17.34h-4.36c-5.19,0-9.1,1.22-11.73,3.66
				c-2.64,2.44-3.95,6.68-3.95,12.74v32.55h-16.51v-65.33h16.51v10.14C675.84,526.43,678.61,523.72,682.03,521.76z"/>
			<path d="M716.88,581.96c-5.03-2.79-8.98-6.74-11.85-11.85c-2.87-5.11-4.3-11.01-4.3-17.69c0-6.68,1.47-12.58,4.42-17.69
				c2.95-5.11,6.98-9.06,12.09-11.85c5.11-2.79,10.81-4.19,17.1-4.19s11.99,1.4,17.1,4.19c5.11,2.79,9.14,6.74,12.09,11.85
				c2.95,5.11,4.42,11.01,4.42,17.69c0,6.68-1.51,12.58-4.54,17.69c-3.03,5.11-7.12,9.06-12.27,11.85
				c-5.15,2.79-10.91,4.19-17.28,4.19C727.57,586.15,721.91,584.75,716.88,581.96z M742.29,569.58c2.63-1.45,4.74-3.64,6.31-6.54
				c1.57-2.91,2.36-6.45,2.36-10.61c0-6.21-1.63-10.99-4.89-14.33c-3.26-3.34-7.25-5.01-11.97-5.01s-8.67,1.67-11.85,5.01
				c-3.18,3.34-4.78,8.12-4.78,14.33c0,6.21,1.55,10.99,4.66,14.33c3.1,3.34,7.02,5.01,11.73,5.01
				C736.85,571.76,739.66,571.03,742.29,569.58z"/>
			<path d="M810.04,533.31H798.6v51.77h-16.75v-51.77h-7.43v-13.56h7.43v-3.3c0-8.02,2.28-13.92,6.84-17.69
				c4.56-3.77,11.44-5.54,20.64-5.31v13.92c-4.01-0.08-6.8,0.59-8.37,2.01c-1.57,1.41-2.36,3.97-2.36,7.67v2.71h11.44V533.31z"/>
			<path d="M821.89,509.2c-1.93-1.85-2.89-4.15-2.89-6.9c0-2.75,0.96-5.05,2.89-6.9c1.93-1.85,4.34-2.77,7.25-2.77
				c2.91,0,5.33,0.92,7.25,2.77c1.93,1.85,2.89,4.15,2.89,6.9c0,2.75-0.96,5.05-2.89,6.9c-1.93,1.85-4.34,2.77-7.25,2.77
				C826.24,511.97,823.82,511.04,821.89,509.2z M837.28,519.75v65.33h-16.51v-65.33H837.28z"/>
			<path d="M872.78,533.31v31.61c0,2.2,0.53,3.79,1.59,4.78c1.06,0.98,2.85,1.47,5.36,1.47h7.67v13.92h-10.38
				c-13.92,0-20.88-6.76-20.88-20.28v-31.49h-7.78v-13.56h7.78v-16.16h16.63v16.16h14.62v13.56H872.78z"/>
			<path d="M1037.41,502.77l-23,82.32h-19.46l-15.45-58.61l-16.16,58.61l-19.34,0.12l-22.17-82.43h17.69l14.51,63.92l16.75-63.92
				h18.4l15.8,63.56l14.62-63.56H1037.41z"/>
			<path d="M1049.26,509.2c-1.93-1.85-2.89-4.15-2.89-6.9c0-2.75,0.96-5.05,2.89-6.9c1.93-1.85,4.34-2.77,7.25-2.77
				c2.91,0,5.33,0.92,7.25,2.77c1.93,1.85,2.89,4.15,2.89,6.9c0,2.75-0.96,5.05-2.89,6.9c-1.93,1.85-4.34,2.77-7.25,2.77
				C1053.6,511.97,1051.19,511.04,1049.26,509.2z M1064.65,519.75v65.33h-16.51v-65.33H1064.65z"/>
			<path d="M1100.15,533.31v31.61c0,2.2,0.53,3.79,1.59,4.78c1.06,0.98,2.85,1.47,5.37,1.47h7.67v13.92h-10.38
				c-13.91,0-20.87-6.76-20.87-20.28v-31.49h-7.78v-13.56h7.78v-16.16h16.63v16.16h14.62v13.56H1100.15z"/>
			<path d="M1176.68,522.05c3.85,2.16,6.86,5.35,9.02,9.55c2.16,4.21,3.24,9.26,3.24,15.15v38.33h-16.51V549
				c0-5.19-1.3-9.18-3.89-11.97c-2.59-2.79-6.13-4.19-10.61-4.19c-4.56,0-8.16,1.4-10.79,4.19c-2.64,2.79-3.95,6.78-3.95,11.97
				v36.09h-16.51v-87.27h16.51v30.07c2.12-2.83,4.95-5.05,8.49-6.66c3.54-1.61,7.47-2.42,11.79-2.42
				C1168.43,518.81,1172.83,519.89,1176.68,522.05z"/>
		</g>
		<g>
			<path class="st0" d="M596.11,677.08c-4.1-1.75-7.33-4.27-9.71-7.56c-2.38-3.29-3.61-7.18-3.67-11.66h15.75
				c0.21,3.01,1.28,5.39,3.2,7.14c1.92,1.75,4.57,2.63,7.93,2.63c3.43,0,6.12-0.82,8.09-2.47c1.96-1.64,2.94-3.8,2.94-6.46
				c0-2.17-0.67-3.95-2-5.35c-1.33-1.4-2.99-2.5-4.99-3.31c-2-0.8-4.74-1.7-8.24-2.68c-4.76-1.4-8.63-2.78-11.6-4.15
				c-2.98-1.37-5.53-3.43-7.67-6.2c-2.14-2.76-3.2-6.46-3.2-11.08c0-4.34,1.09-8.12,3.26-11.34c2.17-3.22,5.21-5.69,9.14-7.4
				c3.92-1.71,8.4-2.57,13.44-2.57c7.56,0,13.7,1.84,18.43,5.51c4.72,3.67,7.33,8.8,7.82,15.38h-16.17c-0.14-2.52-1.21-4.6-3.2-6.25
				c-2-1.64-4.64-2.47-7.93-2.47c-2.87,0-5.16,0.73-6.88,2.21c-1.72,1.47-2.57,3.61-2.57,6.41c0,1.96,0.65,3.59,1.94,4.88
				c1.29,1.3,2.9,2.35,4.83,3.15c1.93,0.81,4.64,1.73,8.14,2.78c4.76,1.4,8.65,2.8,11.66,4.2c3.01,1.4,5.6,3.5,7.77,6.3
				c2.17,2.8,3.26,6.48,3.26,11.03c0,3.92-1.02,7.56-3.05,10.92s-5.01,6.04-8.93,8.03c-3.92,2-8.58,2.99-13.97,2.99
				C604.81,679.7,600.21,678.83,596.11,677.08z"/>
			<path class="st0" d="M665.68,632.87v28.14c0,1.96,0.47,3.38,1.42,4.25c0.95,0.88,2.54,1.31,4.78,1.31h6.83v12.39h-9.24
				c-12.39,0-18.59-6.02-18.59-18.06v-28.04h-6.93v-12.08h6.93V606.4h14.81v14.39h13.02v12.08H665.68z"/>
			<path class="st0" d="M711.41,622.58c3.04-1.75,6.53-2.63,10.45-2.63v15.44h-3.89c-4.62,0-8.1,1.09-10.45,3.26
				c-2.35,2.17-3.52,5.95-3.52,11.34v28.98h-14.7v-58.18h14.7v9.03C705.9,626.74,708.37,624.33,711.41,622.58z"/>
			<path class="st0" d="M731.47,634.02c2.34-4.55,5.53-8.05,9.56-10.5c4.02-2.45,8.52-3.67,13.49-3.67c4.34,0,8.14,0.88,11.39,2.62
				c3.26,1.75,5.86,3.96,7.82,6.62v-8.3h14.81v58.18h-14.81v-8.51c-1.89,2.73-4.5,4.99-7.82,6.77c-3.33,1.78-7.16,2.68-11.5,2.68
				c-4.9,0-9.36-1.26-13.39-3.78c-4.03-2.52-7.21-6.07-9.56-10.66c-2.35-4.58-3.52-9.85-3.52-15.8
				C727.95,643.79,729.12,638.57,731.47,634.02z M771.64,640.69c-1.4-2.55-3.29-4.52-5.67-5.88c-2.38-1.36-4.93-2.05-7.67-2.05
				c-2.73,0-5.25,0.67-7.56,2c-2.31,1.33-4.18,3.27-5.62,5.83c-1.44,2.56-2.15,5.58-2.15,9.08c0,3.5,0.72,6.56,2.15,9.19
				c1.43,2.63,3.32,4.64,5.67,6.04c2.34,1.4,4.85,2.1,7.51,2.1c2.73,0,5.29-0.68,7.67-2.05c2.38-1.36,4.27-3.32,5.67-5.88
				c1.4-2.55,2.1-5.62,2.1-9.19C773.74,646.31,773.03,643.25,771.64,640.69z"/>
			<path class="st0" d="M803.93,611.39c-1.72-1.64-2.57-3.69-2.57-6.14c0-2.45,0.86-4.5,2.57-6.14c1.71-1.64,3.87-2.47,6.46-2.47
				c2.59,0,4.74,0.82,6.46,2.47c1.71,1.65,2.57,3.69,2.57,6.14c0,2.45-0.86,4.5-2.57,6.14c-1.72,1.65-3.87,2.47-6.46,2.47
				C807.79,613.86,805.64,613.04,803.93,611.39z M817.63,620.79v58.18h-14.7v-58.18H817.63z"/>
			<path class="st0" d="M866.35,622.42c3.29,1.72,5.88,3.94,7.77,6.67v-8.3h14.81v58.6c0,5.39-1.09,10.2-3.26,14.44
				c-2.17,4.23-5.43,7.59-9.77,10.08c-4.34,2.48-9.59,3.73-15.75,3.73c-8.26,0-15.03-1.93-20.32-5.78
				c-5.29-3.85-8.28-9.1-8.98-15.75h14.6c0.77,2.66,2.43,4.78,4.99,6.35c2.55,1.58,5.65,2.36,9.29,2.36c4.27,0,7.74-1.28,10.4-3.83
				c2.66-2.56,3.99-6.42,3.99-11.6v-9.03c-1.89,2.73-4.5,5.01-7.82,6.83c-3.33,1.82-7.12,2.73-11.39,2.73
				c-4.9,0-9.38-1.26-13.44-3.78c-4.06-2.52-7.26-6.07-9.61-10.66c-2.35-4.58-3.52-9.85-3.52-15.8c0-5.88,1.17-11.09,3.52-15.65
				c2.34-4.55,5.53-8.05,9.56-10.5c4.02-2.45,8.52-3.67,13.49-3.67C859.25,619.85,863.06,620.7,866.35,622.42z M872.03,640.69
				c-1.4-2.55-3.29-4.52-5.67-5.88c-2.38-1.36-4.93-2.05-7.67-2.05c-2.73,0-5.25,0.67-7.56,2c-2.31,1.33-4.18,3.27-5.62,5.83
				c-1.44,2.56-2.15,5.58-2.15,9.08c0,3.5,0.72,6.56,2.15,9.19c1.43,2.63,3.32,4.64,5.67,6.04c2.34,1.4,4.85,2.1,7.51,2.1
				c2.73,0,5.29-0.68,7.67-2.05c2.38-1.36,4.27-3.32,5.67-5.88c1.4-2.55,2.1-5.62,2.1-9.19
				C874.13,646.31,873.42,643.25,872.03,640.69z"/>
			<path class="st0" d="M947.84,622.84c3.43,1.93,6.11,4.76,8.03,8.51c1.92,3.75,2.89,8.24,2.89,13.49v34.13h-14.7v-32.13
				c0-4.62-1.16-8.17-3.47-10.66c-2.31-2.48-5.46-3.73-9.45-3.73c-4.06,0-7.26,1.24-9.61,3.73c-2.35,2.49-3.52,6.04-3.52,10.66
				v32.13h-14.7v-77.71h14.7v26.78c1.89-2.52,4.41-4.5,7.56-5.93c3.15-1.43,6.65-2.15,10.5-2.15
				C940.49,619.95,944.41,620.91,947.84,622.84z"/>
			<path class="st0" d="M989.84,632.87v28.14c0,1.96,0.47,3.38,1.42,4.25c0.95,0.88,2.54,1.31,4.78,1.31h6.83v12.39h-9.24
				c-12.39,0-18.59-6.02-18.59-18.06v-28.04h-6.93v-12.08h6.93V606.4h14.81v14.39h13.02v12.08H989.84z"/>
			<path class="st0" d="M1028.17,601.26v77.71h-14.7v-77.71H1028.17z"/>
			<path class="st0" d="M1043.66,611.39c-1.72-1.64-2.57-3.69-2.57-6.14c0-2.45,0.86-4.5,2.57-6.14c1.71-1.64,3.87-2.47,6.46-2.47
				c2.59,0,4.74,0.82,6.46,2.47c1.71,1.65,2.57,3.69,2.57,6.14c0,2.45-0.86,4.5-2.57,6.14c-1.72,1.65-3.87,2.47-6.46,2.47
				C1047.53,613.86,1045.37,613.04,1043.66,611.39z M1057.36,620.79v58.18h-14.7v-58.18H1057.36z"/>
			<path class="st0" d="M1120.9,626.51c4.27,4.38,6.41,10.48,6.41,18.32v34.13h-14.7v-32.13c0-4.62-1.16-8.17-3.47-10.66
				c-2.31-2.48-5.46-3.73-9.45-3.73c-4.06,0-7.26,1.24-9.61,3.73c-2.35,2.49-3.52,6.04-3.52,10.66v32.13h-14.7v-58.18h14.7v7.25
				c1.96-2.52,4.46-4.5,7.51-5.93c3.05-1.43,6.39-2.15,10.03-2.15C1111.02,619.95,1116.62,622.14,1120.9,626.51z"/>
			<path class="st0" d="M1194.93,654.29h-42.53c0.35,4.2,1.82,7.49,4.41,9.87c2.59,2.38,5.78,3.57,9.56,3.57
				c5.46,0,9.35-2.34,11.66-7.04h15.86c-1.68,5.6-4.9,10.2-9.66,13.81c-4.76,3.61-10.6,5.41-17.54,5.41
				c-5.6,0-10.62-1.24-15.07-3.73c-4.45-2.48-7.91-6-10.4-10.55c-2.49-4.55-3.73-9.8-3.73-15.75c0-6.02,1.22-11.3,3.68-15.86
				c2.45-4.55,5.88-8.05,10.29-10.5c4.41-2.45,9.49-3.67,15.23-3.67c5.53,0,10.48,1.19,14.86,3.57c4.38,2.38,7.77,5.76,10.19,10.13
				c2.41,4.38,3.62,9.4,3.62,15.07C1195.35,650.72,1195.21,652.61,1194.93,654.29z M1180.12,644.42c-0.07-3.78-1.44-6.81-4.1-9.08
				c-2.66-2.27-5.92-3.41-9.77-3.41c-3.64,0-6.71,1.1-9.19,3.31c-2.49,2.21-4.01,5.27-4.57,9.19H1180.12z"/>
		</g>
	</g>
	<g>
		<path class="st0" d="M388.22,536.43l-108.18-28.46c0,0-95.96,112.19-274.55,114.58l44.93,65.15
			C50.43,687.7,272.57,692.96,388.22,536.43z"/>
		<g>
			<path class="st1" d="M235.05,584.84c4.25,0.73,7.93,2.35,11.05,4.86c3.12,2.5,5.24,5.8,6.36,9.89l10.25-2.14l1.09,5.23
				l-10.38,2.17c0.45,5.94-1.26,11.15-5.12,15.65c-3.86,4.5-9.73,7.69-17.61,9.56l-3.11-14.88c4.99-1.38,7.91-3.64,8.75-6.78
				l-19.99,4.17c-0.8,4.6-1.74,8.34-2.81,11.21c-1.07,2.87-3.18,5.63-6.33,8.27c-3.15,2.65-7.8,4.61-13.96,5.9
				c-7.68,1.6-14.22,1.05-19.63-1.66c-5.41-2.71-9.01-6.89-10.81-12.54l-10.25,2.14l-1.09-5.23l10.25-2.14
				c-0.52-5.86,1.11-10.92,4.89-15.18c3.78-4.26,9.59-7.4,17.44-9.44l3.12,14.96c-4.49,1.28-7.15,3.28-7.99,6.02l19.61-4.09
				c1-4.93,2-8.78,3-11.55c1.01-2.77,3.06-5.49,6.16-8.15c3.1-2.66,7.68-4.63,13.76-5.9C226.36,584.22,230.8,584.11,235.05,584.84z
				 M194.2,621.01c1.26-1.14,2.27-2.62,3.04-4.43l-17.59,3.67c0.74,1.44,1.9,2.45,3.47,3.03c1.57,0.58,3.58,0.62,6.03,0.11
				C191.26,622.94,192.94,622.15,194.2,621.01z M231.78,599.85c-1.8-0.62-3.88-0.68-6.25-0.19c-2.19,0.46-3.89,1.28-5.1,2.47
				c-1.2,1.19-2.13,2.76-2.78,4.72l17.97-3.75C234.87,601.56,233.58,600.47,231.78,599.85z"/>
		</g>
		<g>
			<rect x="403.03" y="634.69" width="18.26" height="17.65"/>
			<rect x="381.93" y="634.69" width="18.26" height="17.65"/>
			<rect x="381.93" y="655.19" width="18.26" height="18.87"/>
			<rect x="403.03" y="655.19" width="18.26" height="18.87"/>
		</g>
		<path d="M160.76,681.76c29.83-7.63,59.09-16.65,87.23-27.87c14.02-5.72,27.79-11.88,41.11-18.8c13.4-6.75,26.19-14.5,38.5-22.76
			c3.05-2.1,6.04-4.28,9.07-6.41c2.91-2.26,5.89-4.45,8.75-6.76c5.75-4.59,11.37-9.32,16.64-14.36c5.26-5.04,10.3-10.26,14.98-15.68
			c2.31-2.72,4.57-5.48,6.61-8.29c1.06-1.4,2.01-2.81,2.96-4.2c0.43-0.68,0.93-1.4,1.32-2.05l0.98-1.62l10.14-16.77l12.54,13.08
			l10.05,10.48v-39.36h33.33v74.84l8.44,9.16l16.87,18.78c11.18,12.6,22.21,25.35,33.06,38.28c10.85,12.94,21.48,26.1,31.71,39.67
			c-13.68-10.06-26.96-20.54-40.02-31.24c-13.06-10.71-25.94-21.59-38.68-32.63l-18.99-16.67l-18.78-16.89l-18.59-17.08l-5.73-5.37
			c-1.61,2.18-3.25,4.31-4.93,6.41c-5.28,6.56-10.99,12.61-16.93,18.37c-5.93,5.77-12.18,11.14-18.55,16.31
			c-3.21,2.55-6.53,4.95-9.79,7.42c-3.35,2.32-6.68,4.69-10.06,6.97c-13.54,9.08-27.81,16.86-42.38,23.78
			c-14.65,6.74-29.57,12.76-44.79,17.72c-30.43,9.91-61.66,16.44-93.02,20.19c-31.38,3.65-62.89,4.68-94.2,2.72
			C100.43,695.25,130.9,689.4,160.76,681.76z"/>
	</g>
</g>
</svg>
