<?xml version="1.0" encoding="utf-8"?>
<!-- Generator: Adobe Illustrator 24.3.0, SVG Export Plug-In . SVG Version: 6.00 Build 0)  -->
<svg version="1.1" id="Layer_1" xmlns="http://www.w3.org/2000/svg" xmlns:xlink="http://www.w3.org/1999/xlink" x="0px" y="0px"
	 viewBox="0 0 1000 1000" style="enable-background:new 0 0 1000 1000;" xml:space="preserve">
<style type="text/css">
	.st0{fill:#8B9EAA;}
	.st1{fill:none;stroke:#5D6F7A;stroke-width:26.7151;stroke-miterlimit:10;}
	.st2{fill:#F7901E;}
	.st3{fill:#FFFFFF;}
	.st4{fill:#28373E;}
	.st5{font-family:'Gotham-Bold';}
	.st6{font-size:129.562px;}
	.st7{font-family:'Gotham-Book';}
	.st8{font-size:29.8612px;}
	.st9{letter-spacing:10;}
	.st10{fill:url(#SVGID_1_);}
	.st11{fill:url(#SVGID_2_);}
	.st12{fill:url(#SVGID_3_);}
	.st13{fill:#5A6163;}
	.st14{font-size:340.8501px;}
	.st15{font-size:134.2317px;}
</style>
<g>
	<path class="st0" d="M76,622.73h848v165c0,20.2-12.33,38.36-31.1,45.82L526.55,979.08c-14.72,5.85-31.11,5.9-45.86,0.13
		L107.37,833.45C88.45,826.06,76,807.83,76,787.52V622.73z"/>
	<path class="st1" d="M892.9,833.55L526.55,979.08c-14.72,5.85-31.11,5.9-45.86,0.13L107.37,833.45
		C88.45,826.06,76,807.83,76,787.52v-677.2c0-51.82,42.01-93.82,93.82-93.82h660.36c51.82,0,93.82,42.01,93.82,93.82v677.41
		C924,807.94,911.67,826.09,892.9,833.55z"/>
	<g>
		<g>
			<path class="st2" d="M662.63,887.51c-1.16,0-2.32-0.29-3.35-0.83l-20.13-10.58l-20.13,10.58c-1.04,0.54-2.2,0.83-3.35,0.83
				c-2.13,0-4.14-0.94-5.52-2.58c-1.37-1.62-1.94-3.75-1.58-5.85l3.84-22.42l-16.29-15.88c-1.98-1.93-2.68-4.76-1.82-7.38
				c0.85-2.63,3.08-4.51,5.82-4.9l22.51-3.27l10.07-20.4c1.22-2.48,3.7-4.01,6.46-4.01c2.76,0,5.24,1.54,6.46,4.01l10.07,20.4
				l22.51,3.27c2.73,0.4,4.96,2.28,5.82,4.9c0.85,2.63,0.16,5.46-1.82,7.38l-16.29,15.88l3.84,22.42c0.36,2.1-0.22,4.23-1.58,5.85
				C666.77,886.57,664.75,887.51,662.63,887.51z"/>
			<path class="st3" d="M639.14,805.57c0.87,0,1.75,0.46,2.2,1.37l11.17,22.64l24.98,3.63c2.01,0.29,2.81,2.76,1.36,4.18
				l-18.08,17.62l4.27,24.88c0.27,1.58-0.99,2.87-2.42,2.87c-0.38,0-0.77-0.09-1.14-0.29l-22.34-11.75l-22.34,11.75
				c-0.38,0.2-0.76,0.29-1.14,0.29c-1.43,0-2.69-1.29-2.42-2.87l4.27-24.88l-18.08-17.62c-1.45-1.42-0.65-3.89,1.36-4.18l24.98-3.63
				l11.17-22.64C637.39,806.03,638.27,805.57,639.14,805.57 M639.14,796.07c-4.58,0-8.69,2.55-10.72,6.66l-8.96,18.16l-20.04,2.91
				c-4.54,0.66-8.24,3.78-9.65,8.14c-1.42,4.36-0.26,9.06,3.03,12.26l14.5,14.13l-3.42,19.96c-0.6,3.48,0.36,7.03,2.63,9.72
				c2.28,2.71,5.62,4.26,9.15,4.26c1.92,0,3.85-0.48,5.56-1.38l17.92-9.42l17.92,9.42c1.72,0.9,3.64,1.38,5.56,1.38
				c3.53,0,6.87-1.55,9.15-4.26c2.27-2.69,3.23-6.24,2.63-9.72l-3.42-19.96l14.5-14.13c3.28-3.2,4.44-7.9,3.03-12.26
				c-1.42-4.36-5.12-7.48-9.65-8.14l-20.04-2.91l-8.96-18.16C647.84,798.62,643.73,796.07,639.14,796.07L639.14,796.07z"/>
		</g>
		<g>
			<path class="st2" d="M384.34,887.51c-1.16,0-2.32-0.29-3.35-0.83l-20.13-10.58l-20.13,10.58c-1.04,0.54-2.2,0.83-3.35,0.83
				c-2.13,0-4.14-0.94-5.52-2.58c-1.37-1.62-1.94-3.75-1.58-5.85l3.85-22.42l-16.29-15.88c-1.98-1.93-2.68-4.76-1.82-7.39
				c0.85-2.63,3.08-4.51,5.82-4.9l22.51-3.27l10.07-20.4c1.22-2.48,3.7-4.01,6.46-4.01c2.76,0,5.24,1.54,6.46,4.01l10.07,20.4
				l22.51,3.27c2.73,0.4,4.96,2.28,5.82,4.9c0.85,2.63,0.15,5.46-1.82,7.38l-16.29,15.88l3.85,22.42c0.36,2.1-0.22,4.23-1.58,5.85
				C388.48,886.57,386.47,887.51,384.34,887.51z"/>
			<path class="st3" d="M360.86,805.57c0.87,0,1.75,0.46,2.2,1.37l11.17,22.64l24.98,3.63c2.01,0.29,2.81,2.76,1.36,4.18
				l-18.08,17.62l4.27,24.88c0.27,1.58-0.99,2.87-2.42,2.87c-0.38,0-0.77-0.09-1.14-0.29l-22.34-11.75l-22.34,11.75
				c-0.38,0.2-0.76,0.29-1.14,0.29c-1.43,0-2.69-1.29-2.42-2.87l4.27-24.88l-18.08-17.62c-1.45-1.42-0.65-3.89,1.36-4.18l24.98-3.63
				l11.17-22.64C359.11,806.03,359.98,805.57,360.86,805.57 M360.86,796.07c-4.58,0-8.69,2.55-10.72,6.66l-8.96,18.16l-20.04,2.91
				c-4.54,0.66-8.24,3.78-9.65,8.14c-1.42,4.36-0.26,9.06,3.03,12.26l14.5,14.13l-3.42,19.96c-0.6,3.48,0.36,7.03,2.63,9.72
				c2.28,2.71,5.62,4.26,9.15,4.26c1.92,0,3.85-0.48,5.56-1.38l17.92-9.42l17.92,9.42c1.72,0.9,3.64,1.38,5.56,1.38
				c3.53,0,6.87-1.55,9.15-4.26c2.27-2.69,3.23-6.24,2.63-9.72l-3.42-19.96l14.5-14.13c3.28-3.2,4.44-7.9,3.03-12.26
				c-1.42-4.36-5.12-7.48-9.65-8.14l-20.04-2.91l-8.96-18.16C369.55,798.62,365.44,796.07,360.86,796.07L360.86,796.07z"/>
		</g>
		<g>
			<path class="st2" d="M608.22,903.35c-1.29,0-2.58-0.32-3.73-0.93l-27.57-14.49l-27.57,14.49c-1.16,0.61-2.45,0.93-3.73,0.93
				c-2.37,0-4.61-1.05-6.14-2.87c-1.52-1.8-2.16-4.18-1.76-6.51l5.27-30.7l-22.3-21.74c-2.2-2.15-2.98-5.3-2.03-8.22
				c0.95-2.92,3.43-5.02,6.47-5.46l30.82-4.48l13.78-27.93c1.36-2.76,4.12-4.47,7.19-4.47s5.83,1.71,7.19,4.47l13.78,27.93
				l30.82,4.48c3.04,0.44,5.52,2.53,6.47,5.46c0.95,2.92,0.17,6.08-2.03,8.22l-22.3,21.74l5.27,30.7c0.4,2.34-0.24,4.71-1.76,6.51
				C612.83,902.31,610.59,903.35,608.22,903.35z"/>
			<path class="st3" d="M576.92,795.73c1.17,0,2.33,0.61,2.93,1.82l14.89,30.17l33.29,4.84c2.68,0.39,3.75,3.68,1.81,5.57
				l-24.09,23.48l5.69,33.16c0.36,2.11-1.32,3.83-3.22,3.83c-0.5,0-1.02-0.12-1.52-0.38l-29.78-15.66l-29.78,15.66
				c-0.5,0.26-1.02,0.38-1.52,0.38c-1.9,0-3.58-1.71-3.22-3.83l5.69-33.16l-24.09-23.48c-1.94-1.89-0.87-5.18,1.81-5.57l33.29-4.84
				l14.89-30.17C574.59,796.34,575.75,795.73,576.92,795.73 M576.92,786.22c-4.9,0-9.29,2.73-11.45,7.12l-12.68,25.69l-28.35,4.12
				c-4.85,0.7-8.8,4.04-10.31,8.69c-1.51,4.66-0.27,9.67,3.23,13.09l20.51,20l-4.84,28.23c-0.64,3.72,0.39,7.5,2.81,10.38
				c2.44,2.9,6.01,4.56,9.78,4.56c2.05,0,4.11-0.51,5.94-1.47l25.36-13.33l25.36,13.33c1.83,0.96,3.89,1.47,5.94,1.47
				c3.77,0,7.33-1.66,9.78-4.56c2.42-2.88,3.45-6.66,2.81-10.38l-4.84-28.23l20.51-20c3.51-3.42,4.75-8.44,3.23-13.09
				s-5.46-7.99-10.31-8.69l-28.35-4.12l-12.68-25.69C586.21,788.95,581.82,786.22,576.92,786.22L576.92,786.22z"/>
		</g>
		<g>
			<path class="st2" d="M454.52,903.35c-1.29,0-2.58-0.32-3.73-0.93l-27.57-14.49l-27.57,14.49c-1.15,0.61-2.45,0.93-3.73,0.93
				c-2.37,0-4.61-1.05-6.14-2.87c-1.52-1.8-2.16-4.18-1.76-6.51l5.27-30.7l-22.3-21.74c-2.2-2.15-2.98-5.3-2.03-8.22
				c0.95-2.92,3.43-5.02,6.47-5.46l30.82-4.48l13.78-27.93c1.36-2.76,4.12-4.47,7.19-4.47s5.83,1.71,7.19,4.47l13.78,27.93
				l30.82,4.48c3.04,0.44,5.52,2.53,6.47,5.46c0.95,2.92,0.17,6.07-2.03,8.22l-22.3,21.74l5.27,30.7c0.4,2.34-0.24,4.71-1.76,6.51
				C459.12,902.31,456.88,903.35,454.52,903.35z"/>
			<path class="st3" d="M423.22,795.73c1.17,0,2.33,0.61,2.93,1.82l14.89,30.17l33.29,4.84c2.68,0.39,3.75,3.68,1.81,5.57
				l-24.09,23.48l5.69,33.16c0.36,2.11-1.32,3.83-3.22,3.83c-0.5,0-1.02-0.12-1.52-0.38l-29.78-15.66l-29.78,15.66
				c-0.5,0.26-1.02,0.38-1.52,0.38c-1.9,0-3.58-1.71-3.22-3.83l5.69-33.16l-24.09-23.48c-1.94-1.89-0.87-5.18,1.81-5.57l33.29-4.84
				l14.89-30.17C420.88,796.34,422.05,795.73,423.22,795.73 M423.22,786.22c-4.9,0-9.29,2.73-11.45,7.12l-12.68,25.69l-28.35,4.12
				c-4.85,0.7-8.8,4.04-10.31,8.69c-1.51,4.66-0.27,9.67,3.23,13.09l20.51,20l-4.84,28.23c-0.64,3.72,0.39,7.5,2.81,10.38
				c2.44,2.9,6.01,4.56,9.78,4.56c2.05,0,4.11-0.51,5.94-1.47l25.36-13.33l25.36,13.33c1.83,0.96,3.89,1.47,5.94,1.47
				c3.77,0,7.33-1.66,9.78-4.56c2.42-2.88,3.45-6.66,2.81-10.38l-4.84-28.23l20.51-20c3.51-3.42,4.75-8.44,3.23-13.09
				c-1.51-4.66-5.46-7.99-10.31-8.69l-28.35-4.12l-12.68-25.69C432.5,788.95,428.11,786.22,423.22,786.22L423.22,786.22z"/>
		</g>
		<g>
			<path class="st2" d="M538.73,912.86c-1.44,0-2.88-0.36-4.17-1.04l-36.12-18.99l-36.12,18.99c-1.29,0.68-2.73,1.04-4.17,1.04
				c-2.64,0-5.15-1.17-6.86-3.21c-1.7-2.01-2.41-4.66-1.96-7.27l6.9-40.22l-29.22-28.48c-2.46-2.4-3.33-5.92-2.27-9.18
				c1.06-3.27,3.83-5.6,7.23-6.1l40.38-5.87l18.06-36.59c1.52-3.08,4.6-4.99,8.03-4.99c3.43,0,6.51,1.91,8.03,4.99l18.06,36.59
				l40.38,5.87c3.4,0.49,6.17,2.83,7.23,6.1s0.19,6.79-2.27,9.18l-29.22,28.48l6.9,40.22c0.45,2.61-0.27,5.26-1.96,7.27
				C543.88,911.69,541.38,912.86,538.73,912.86z"/>
			<path class="st3" d="M498.45,775.71c1.5,0,3,0.78,3.77,2.34l19.16,38.83l42.85,6.23c3.45,0.5,4.83,4.74,2.33,7.17l-31.01,30.22
				l7.32,42.68c0.47,2.72-1.69,4.93-4.14,4.93c-0.65,0-1.31-0.15-1.96-0.49l-38.33-20.15l-38.33,20.15
				c-0.64,0.34-1.31,0.49-1.96,0.49c-2.45,0-4.61-2.21-4.14-4.93l7.32-42.68l-31.01-30.22c-2.5-2.43-1.12-6.67,2.33-7.17l42.85-6.23
				l19.16-38.83C495.45,776.49,496.95,775.71,498.45,775.71 M498.45,766.2c-5.26,0-9.97,2.93-12.29,7.64l-16.95,34.35l-37.91,5.51
				c-5.2,0.76-9.44,4.33-11.07,9.33c-1.62,5-0.3,10.39,3.47,14.05l27.43,26.74l-6.48,37.75c-0.69,3.99,0.41,8.06,3.01,11.14
				c2.62,3.11,6.45,4.9,10.5,4.9c2.2,0,4.41-0.55,6.38-1.58l33.9-17.82l33.9,17.82c1.97,1.04,4.18,1.58,6.38,1.58
				c4.05,0,7.87-1.78,10.5-4.9c2.6-3.09,3.7-7.15,3.01-11.14l-6.48-37.75l27.43-26.74c3.76-3.67,5.09-9.05,3.47-14.05
				c-1.62-5-5.87-8.58-11.07-9.33l-37.91-5.51l-16.95-34.35C508.42,769.13,503.71,766.2,498.45,766.2L498.45,766.2z"/>
		</g>
	</g>
	<g>
		<text transform="matrix(1 0 0 1 313.0884 228.2651)" class="st4 st5 st6">idaho</text>
		<text transform="matrix(1 0 0 1 320.2231 262.6021)" class="st4 st7 st8 st9">ROOFING COST</text>
		<g>
			<polygon class="st4" points="513.71,89.21 509.76,85.56 535.86,57.38 565.05,81.72 561.6,85.85 536.34,64.79 			"/>
			<linearGradient id="SVGID_1_" gradientUnits="userSpaceOnUse" x1="491.8499" y1="70.6477" x2="536.0991" y2="70.6477">
				<stop  offset="0" style="stop-color:#4E73D1"/>
				<stop  offset="1" style="stop-color:#269BD6"/>
			</linearGradient>
			<polygon class="st10" points="536.1,57.5 491.85,66.47 511.74,83.8 			"/>
			<linearGradient id="SVGID_2_" gradientUnits="userSpaceOnUse" x1="595.2974" y1="96.9645" x2="510.9847" y2="96.9645">
				<stop  offset="0" style="stop-color:#4E73D1"/>
				<stop  offset="1" style="stop-color:#269BD6"/>
			</linearGradient>
			<polygon class="st11" points="510.98,88 595.3,75.44 549.1,118.49 			"/>
			<linearGradient id="SVGID_3_" gradientUnits="userSpaceOnUse" x1="413.517" y1="86.7991" x2="549.2543" y2="86.7991">
				<stop  offset="0" style="stop-color:#4E73D1"/>
				<stop  offset="0.3209" style="stop-color:#467BD2"/>
				<stop  offset="0.8232" style="stop-color:#3091D5"/>
				<stop  offset="1" style="stop-color:#269BD6"/>
			</linearGradient>
			<polygon class="st12" points="413.52,55.11 493.64,67.07 549.25,118.49 481.39,118.49 			"/>
			<polygon class="st4" points="675.25,124.77 638.43,124.77 595.23,82.72 550.29,123.57 480.34,123.57 413.55,62.38 347.93,124.77 
				321.2,124.77 321.2,119.39 345.78,119.39 413.48,55.01 482.43,118.19 548.21,118.19 595.36,75.33 640.61,119.39 675.25,119.39 
							"/>
			<g>
				<path class="st4" d="M412.62,96.73V86.72c-5.02,0.22-9.03,4.36-9.03,9.44v0.58H412.62z"/>
				<path class="st4" d="M413.46,96.73h9.03v-0.58c0-5.08-4.01-9.22-9.03-9.44V96.73z"/>
				<rect x="403.59" y="97.57" class="st4" width="9.03" height="8.03"/>
				<rect x="413.46" y="97.57" class="st4" width="9.03" height="8.03"/>
			</g>
			<g>
				<path class="st4" d="M594.97,102.43v-7.34c-3.68,0.16-6.61,3.19-6.61,6.91v0.42H594.97z"/>
				<path class="st4" d="M595.59,102.43h6.61V102c0-3.72-2.93-6.75-6.61-6.91V102.43z"/>
				<rect x="588.36" y="103.04" class="st4" width="6.61" height="5.88"/>
				<rect x="595.59" y="103.04" class="st4" width="6.61" height="5.88"/>
			</g>
			<g>
				<path class="st4" d="M536.52,73.82v-3.85c-1.93,0.08-3.47,1.68-3.47,3.63v0.22H536.52z"/>
				<path class="st4" d="M536.84,73.82h3.47V73.6c0-1.95-1.54-3.54-3.47-3.63V73.82z"/>
				<rect x="533.05" y="74.15" class="st4" width="3.47" height="3.09"/>
				<rect x="536.84" y="74.15" class="st4" width="3.47" height="3.09"/>
			</g>
			<polygon class="st13" points="350.46,124.77 412.62,64.42 354.54,124.77 			"/>
			<polygon class="st13" points="477.88,123.74 414.35,65.15 473.81,123.83 			"/>
			<polygon class="st13" points="553.14,123.66 594.97,83.8 555.7,123.66 			"/>
			<polygon class="st13" points="635.54,124.6 595.1,83.68 632.98,124.52 			"/>
		</g>
	</g>
	<text transform="matrix(1 0 0 1 269.418 570.7822)" class="st2 st5 st14">20</text>
	<text transform="matrix(1 0 0 1 170.3979 755.5762)" class="st3 st5 st15">REVIEWS</text>
</g>
</svg>
