<?xml version="1.0" encoding="utf-8"?>
<!-- Generator: Adobe Illustrator 24.3.0, SVG Export Plug-In . SVG Version: 6.00 Build 0)  -->
<svg version="1.1" id="Layer_1" xmlns="http://www.w3.org/2000/svg" xmlns:xlink="http://www.w3.org/1999/xlink" x="0px" y="0px"
	 viewBox="0 0 1000 1000" style="enable-background:new 0 0 1000 1000;" xml:space="preserve">
<style type="text/css">
	.st0{fill:#5D6F7A;}
	.st1{fill:#FFFFFF;}
	.st2{fill:none;}
	.st3{fill:none;stroke:#5D6F7A;stroke-width:8.2152;stroke-miterlimit:10;}
	.st4{fill:none;stroke:#5D6F7A;stroke-width:10.4592;stroke-miterlimit:10;}
	.st5{font-family:'Gotham-Medium';}
	.st6{font-size:70.3817px;}
	.st7{fill:#28373E;}
	.st8{font-family:'Gotham-Bold';}
	.st9{font-size:113.6421px;}
	.st10{font-family:'Gotham-Book';}
	.st11{font-size:26.192px;}
	.st12{letter-spacing:9;}
	.st13{fill:url(#SVGID_3_);}
	.st14{fill:url(#SVGID_4_);}
	.st15{fill:url(#SVGID_5_);}
	.st16{fill:#5A6163;}
</style>
<g>
	<g>
		<path class="st0" d="M994.85,500c0,49.73-73.93,87.17-88.5,132.04c-15.1,46.51,22.18,120.15-5.99,158.86
			c-28.45,39.1-110.2,26.26-149.3,54.71c-38.71,28.17-51.6,110.04-98.11,125.14c-44.87,14.57-103.22-43.61-152.95-43.61
			c-49.73,0-108.08,58.18-152.95,43.61c-46.51-15.1-59.4-96.97-98.11-125.14c-39.1-28.45-120.85-15.61-149.3-54.71
			c-28.17-38.71,9.11-112.35-5.99-158.86C79.07,587.17,5.15,549.73,5.15,500c0-49.73,73.93-87.17,88.5-132.04
			c15.1-46.51-22.18-120.15,5.99-158.86c28.45-39.1,110.2-26.26,149.3-54.71c38.71-28.17,51.6-110.04,98.11-125.14
			C391.92,14.67,450.27,72.85,500,72.85c49.73,0,108.08-58.18,152.95-43.61c46.51,15.1,59.4,96.97,98.11,125.14
			c39.1,28.45,120.85,15.61,149.3,54.71c28.17,38.71-9.11,112.35,5.99,158.86C920.93,412.83,994.85,450.27,994.85,500z"/>
	</g>
	<circle class="st1" cx="500" cy="500" r="384.65"/>
	<path id="SVGID_x5F_1_x5F_" class="st2" d="M224.48,363.5c0,0,102.28-141.9,275.88-141.9S775.52,374.3,775.52,374.3"/>
	<text>	<textPath  xlink:href="#SVGID_x5F_1_x5F_" startOffset="35.3814%">
<tspan  class="st0 st5 st6">Best Of</tspan>	</textPath>
</text>
	<path id="SVGID_x5F_2_x5F_" class="st2" d="M193.27,686.24c0,0,95.04,161.23,286.82,161.23s325.85-161.23,325.85-161.23"/>
	<text>	<textPath  xlink:href="#SVGID_x5F_2_x5F_" startOffset="24.4718%">
<tspan  class="st0 st8" style="font-size:52.7863px;">idaho roofing cost</tspan>	</textPath>
</text>
	<circle class="st3" cx="500" cy="509.91" r="251.36"/>
	<path class="st4" d="M201.11,395.31c26.44-68.93,76.04-126.38,139.27-162.84"/>
	<path class="st4" d="M268.65,731.03c-35.52-37.16-62.18-82.86-76.59-133.71"/>
	<path class="st4" d="M809,593.48c-13.29,49.25-38.04,93.79-71.21,130.6"/>
	<path class="st4" d="M639.04,221.59c73.02,35.28,130.6,97.48,159.85,173.72"/>
	<path class="st0" d="M126.87,406.29c0,0,12.4,21.71,133.31,28.12c0,0-17.1,93.16-5.42,130.87c0,0-109.77,11.82-141.21,32.03
		C113.55,597.32,82.68,425.5,126.87,406.29z"/>
	<path class="st0" d="M874.78,406.29c0,0-12.4,21.71-133.31,28.12c0,0,17.1,93.16,5.42,130.87c0,0,109.77,11.82,141.21,32.03
		C888.09,597.32,918.96,425.5,874.78,406.29z"/>
	<text transform="matrix(1 0 0 1 135.2012 519.5908)" class="st1 st5 st6">20</text>
	<text transform="matrix(1 0 0 1 775.5156 519.5908)" class="st1 st5 st6">20</text>
	<g>
		<text transform="matrix(1 0 0 1 336.0498 558.7095)" class="st7 st8 st9">idaho</text>
		<text transform="matrix(1 0 0 1 342.3071 588.8281)" class="st7 st10 st11 st12">ROOFING COST</text>
		<g>
			<polygon class="st7" points="512.03,436.74 508.56,433.53 531.45,408.82 557.05,430.17 554.03,433.8 531.87,415.32 			"/>
			<linearGradient id="SVGID_3_" gradientUnits="userSpaceOnUse" x1="492.8515" y1="420.4578" x2="531.6636" y2="420.4578">
				<stop  offset="0" style="stop-color:#4E73D1"/>
				<stop  offset="1" style="stop-color:#269BD6"/>
			</linearGradient>
			<polygon class="st13" points="531.66,408.92 492.85,416.79 510.29,431.99 			"/>
			<linearGradient id="SVGID_4_" gradientUnits="userSpaceOnUse" x1="583.5879" y1="443.5409" x2="509.6351" y2="443.5409">
				<stop  offset="0" style="stop-color:#4E73D1"/>
				<stop  offset="1" style="stop-color:#269BD6"/>
			</linearGradient>
			<polygon class="st14" points="509.64,435.67 583.59,424.66 543.07,462.42 			"/>
			<linearGradient id="SVGID_5_" gradientUnits="userSpaceOnUse" x1="424.1437" y1="434.6246" x2="543.2023" y2="434.6246">
				<stop  offset="0" style="stop-color:#4E73D1"/>
				<stop  offset="0.3209" style="stop-color:#467BD2"/>
				<stop  offset="0.8232" style="stop-color:#3091D5"/>
				<stop  offset="1" style="stop-color:#269BD6"/>
			</linearGradient>
			<polygon class="st15" points="424.14,406.83 494.43,417.32 543.2,462.42 483.67,462.42 			"/>
			<polygon class="st7" points="653.71,467.93 621.42,467.93 583.53,431.05 544.11,466.88 482.76,466.88 424.17,413.2 
				366.61,467.93 343.17,467.93 343.17,463.21 364.73,463.21 424.11,406.75 484.59,462.16 542.29,462.16 583.64,424.57 
				623.34,463.21 653.71,463.21 			"/>
			<g>
				<path class="st7" d="M423.35,443.34v-8.79c-4.41,0.19-7.92,3.83-7.92,8.28v0.51H423.35z"/>
				<path class="st7" d="M424.09,443.34h7.92v-0.51c0-4.45-3.51-8.09-7.92-8.28V443.34z"/>
				<rect x="415.44" y="444.08" class="st7" width="7.92" height="7.04"/>
				<rect x="424.09" y="444.08" class="st7" width="7.92" height="7.04"/>
			</g>
			<g>
				<path class="st7" d="M583.3,448.33v-6.44c-3.23,0.14-5.8,2.8-5.8,6.06v0.37H583.3z"/>
				<path class="st7" d="M583.84,448.33h5.8v-0.37c0-3.26-2.57-5.92-5.8-6.06V448.33z"/>
				<rect x="577.5" y="448.87" class="st7" width="5.8" height="5.16"/>
				<rect x="583.84" y="448.87" class="st7" width="5.8" height="5.16"/>
			</g>
			<g>
				<path class="st7" d="M532.03,423.24v-3.38c-1.69,0.07-3.04,1.47-3.04,3.18v0.19H532.03z"/>
				<path class="st7" d="M532.31,423.24h3.04v-0.19c0-1.71-1.35-3.11-3.04-3.18V423.24z"/>
				<rect x="528.99" y="423.53" class="st7" width="3.04" height="2.71"/>
				<rect x="532.31" y="423.53" class="st7" width="3.04" height="2.71"/>
			</g>
			<polygon class="st16" points="368.84,467.93 423.35,415 372.41,467.93 			"/>
			<polygon class="st16" points="480.6,467.03 424.88,415.63 477.03,467.11 			"/>
			<polygon class="st16" points="546.61,466.95 583.3,431.99 548.86,466.95 			"/>
			<polygon class="st16" points="618.89,467.78 583.42,431.89 616.64,467.71 			"/>
		</g>
	</g>
</g>
</svg>
