<?xml version="1.0" encoding="utf-8"?>
<!-- Generator: Adobe Illustrator 24.3.0, SVG Export Plug-In . SVG Version: 6.00 Build 0)  -->
<svg version="1.1" id="Layer_1" xmlns="http://www.w3.org/2000/svg" xmlns:xlink="http://www.w3.org/1999/xlink" x="0px" y="0px"
	 viewBox="0 0 1905.34 537.09" style="enable-background:new 0 0 1905.34 537.09;" xml:space="preserve">
<style type="text/css">
	.st0{fill:#FF0000;}
	.st1{fill:#FFFFFF;}
	.st2{font-family:'Roboto-BoldCondensed';}
	.st3{font-size:248.511px;}
</style>
<g>
	<g>
		<text transform="matrix(1 0 0 1 4.5111 236.3068)" class="st0 st2 st3">CLICK HERE</text>
		<text transform="matrix(1 0 0 1 4.5111 445.525)" class="st0 st2 st3">TO PLAY VIDEO</text>
	</g>
	<path class="st0" d="M1852.57,426.51c0.05-0.11,0.1-0.22,0.15-0.33l2.56-6.21c0.86-2.07,1.71-4.15,2.45-6.26l2.32-6.31
		c0.76-2.11,1.38-4.24,2.08-6.37c0.66-2.13,1.39-4.26,2-6.4l1.8-6.44c2.37-8.61,4.31-17.3,5.99-26.02c0.47-2.18,0.83-4.37,1.18-6.57
		l1.08-6.6c0.17-1.13,0.37-2.13,0.53-3.38l0.43-3.93c0.16-1.32,0.19-2.62,0.27-3.93c0.08-1.31,0.14-2.63,0.13-3.95
		c0.18-10.57-1.41-21.4-4.66-31.6c-3.17-10.25-8.03-19.75-13.66-28.38c-5.73-8.56-12.22-16.3-19.21-23.19
		c-6.97-6.92-14.35-13.09-21.96-18.7c-15.21-11.22-31.25-20.26-47.5-28.12c-16.28-7.85-32.85-14.4-49.54-20.19
		c-33.4-11.51-67.28-19.82-101.28-26.26c-34.01-6.4-68.17-10.88-102.38-13.77c-34.2-2.93-68.46-4.21-102.68-4.05
		c-17.12,0.15-34.22,0.58-51.32,1.58c-17.09,0.97-34.18,2.31-51.22,4.67c16.81,3.55,33.53,6.83,50.23,10.05l49.95,9.61
		c33.22,6.32,66.28,12.73,99.13,19.39c32.84,6.73,65.47,13.73,97.67,21.63c32.18,7.91,63.97,16.64,94.64,27.16
		c7.67,2.61,15.24,5.4,22.72,8.3c7.49,2.87,14.83,5.97,22.05,9.18c7.22,3.21,14.25,6.66,21.11,10.25
		c6.84,3.62,13.42,7.49,19.71,11.56c12.48,8.22,23.77,17.44,32.05,27.85c8.36,10.39,13.52,21.74,14.99,34.42
		c0.12,0.79,0.18,1.59,0.22,2.4c0.04,0.8,0.15,1.62,0.15,2.41l0.07,2.41c0.01,0.87-0.06,1.97-0.09,2.94
		c-0.18,4.02-0.23,8.05-0.49,12.08c-0.46,8.07-1.07,16.13-2.01,24.13c-1.29,10.94-2.95,21.86-5.31,32.6l-48.66-23.41l14.36,100.25
		l1.35,9.42l0.76,5.34l100.14-58.91L1852.57,426.51z"/>
</g>
</svg>
