<?xml version="1.0" encoding="utf-8"?>
<!-- Generator: Adobe Illustrator 24.3.0, SVG Export Plug-In . SVG Version: 6.00 Build 0)  -->
<svg version="1.1" id="Layer_1" xmlns="http://www.w3.org/2000/svg" xmlns:xlink="http://www.w3.org/1999/xlink" x="0px" y="0px"
	 viewBox="0 0 1000 1000" style="enable-background:new 0 0 1000 1000;" xml:space="preserve">
<style type="text/css">
	.st0{fill:#5D6F7A;stroke:#5D6F7A;stroke-width:25.0398;stroke-miterlimit:10;}
	.st1{fill:#FFFFFF;}
	.st2{fill:#F7901E;}
	.st3{font-family:'Gotham-Book';}
	.st4{font-size:145.227px;}
	.st5{font-family:'Gotham-Bold';}
	.st6{font-size:173.7603px;}
	.st7{fill:#28373E;}
	.st8{font-size:134.7687px;}
	.st9{font-size:31.0612px;}
	.st10{letter-spacing:10;}
	.st11{fill:url(#SVGID_1_);}
	.st12{fill:url(#SVGID_2_);}
	.st13{fill:url(#SVGID_3_);}
	.st14{fill:#5A6163;}
</style>
<g>
	<path class="st0" d="M119.31,64.6c106.5-25.66,430.66-88.56,762.32-0.48c20.9,5.55,35.51,24.47,35.51,46.1v822.38
		c0,30.52-28.31,53.24-58.06,46.41c-115.82-26.57-392.65-72.03-718.28,1.05c-29.71,6.67-57.94-15.95-57.94-46.39l0-822.79
		C82.86,88.85,97.91,69.75,119.31,64.6z"/>
	<path class="st1" d="M38.99,358.74c110.18-13.73,537.7-59.65,922.68-0.41c13.09,2.01,21.27,15.3,17.35,27.95l-38.15,123.24
		l37.1,134.14c4.06,14.68-7.77,28.88-22.93,27.44c-115.19-10.97-527.3-44.28-900.71-0.74c-15.28,1.78-27.57-12.26-23.62-27.13
		l35.56-133.7l-44.91-121.7C16.52,374.69,25.09,360.47,38.99,358.74z"/>
	<path class="st2" d="M38.99,383.78c110.18-13.73,537.7-59.65,922.68-0.41c13.09,2.01,21.27,15.3,17.35,27.95l-38.15,123.24
		l37.1,134.14c4.06,14.68-7.77,28.88-22.93,27.44c-115.19-10.97-527.3-44.28-900.71-0.74c-15.28,1.78-27.57-12.26-23.62-27.13
		l35.56-133.7l-44.91-121.7C16.52,399.73,25.09,385.51,38.99,383.78z"/>
	<g>
		<path class="st1" d="M210.99,142.37l13.2,26.75l29.52,4.29c4.64,0.67,6.49,6.37,3.13,9.64l-21.36,20.82l5.04,29.4
			c0.79,4.62-4.06,8.14-8.2,5.96l-26.4-13.88l-26.4,13.88c-4.15,2.18-8.99-1.34-8.2-5.96l5.04-29.4L155,183.04
			c-3.36-3.27-1.5-8.97,3.13-9.64l29.52-4.29l13.2-26.75C202.92,138.16,208.91,138.16,210.99,142.37z"/>
		<path class="st1" d="M799.15,142.37l13.2,26.75l29.52,4.29c4.64,0.67,6.49,6.37,3.13,9.64l-21.36,20.82l5.04,29.4
			c0.79,4.62-4.06,8.14-8.2,5.96l-26.4-13.88l-26.4,13.88c-4.15,2.18-8.99-1.34-8.2-5.96l5.04-29.4l-21.36-20.82
			c-3.36-3.27-1.5-8.97,3.13-9.64l29.52-4.29l13.2-26.75C791.09,138.16,797.08,138.16,799.15,142.37z"/>
		<text transform="matrix(1 0 0 1 289.5723 242.1943)" class="st1 st3 st4">ELITE</text>
	</g>
	<text transform="matrix(1 0 0 1 106.7002 575.7754)" class="st1 st5 st6">SERVICE</text>
	<path class="st1" d="M115.47,688.25c0,0,423.93-68.14,768.24,0v227.78c0,23.76-22.54,40.97-45.47,34.75
		c-104.5-28.31-376.06-83.75-677.34,0.09c-22.85,6.36-45.42-11.04-45.42-34.75V688.25z"/>
	<g>
		<text transform="matrix(1 0 0 1 312.8633 851.0703)" class="st7 st5 st8">idaho</text>
		<text transform="matrix(1 0 0 1 320.2852 886.7861)" class="st7 st3 st9 st10">ROOFING COST</text>
		<g>
			<polygon class="st7" points="521.55,706.43 517.44,702.62 544.59,673.32 574.95,698.63 571.37,702.93 545.09,681.02 			"/>
			<linearGradient id="SVGID_1_" gradientUnits="userSpaceOnUse" x1="498.813" y1="687.1152" x2="544.8404" y2="687.1152">
				<stop  offset="0" style="stop-color:#4E73D1"/>
				<stop  offset="1" style="stop-color:#269BD6"/>
			</linearGradient>
			<polygon class="st11" points="544.84,673.44 498.81,682.77 519.5,700.79 			"/>
			<linearGradient id="SVGID_2_" gradientUnits="userSpaceOnUse" x1="606.4176" y1="714.4895" x2="518.7167" y2="714.4895">
				<stop  offset="0" style="stop-color:#4E73D1"/>
				<stop  offset="1" style="stop-color:#269BD6"/>
			</linearGradient>
			<polygon class="st12" points="518.72,705.16 606.42,692.1 558.37,736.88 			"/>
			<linearGradient id="SVGID_3_" gradientUnits="userSpaceOnUse" x1="417.332" y1="703.9156" x2="558.5242" y2="703.9156">
				<stop  offset="0" style="stop-color:#4E73D1"/>
				<stop  offset="0.3209" style="stop-color:#467BD2"/>
				<stop  offset="0.8232" style="stop-color:#3091D5"/>
				<stop  offset="1" style="stop-color:#269BD6"/>
			</linearGradient>
			<polygon class="st13" points="417.33,670.95 500.68,683.39 558.52,736.88 487.93,736.88 			"/>
			<polygon class="st7" points="689.58,743.41 651.28,743.41 606.35,699.67 559.61,742.17 486.84,742.17 417.37,678.51 
				349.1,743.41 321.31,743.41 321.31,737.81 346.87,737.81 417.3,670.85 489.02,736.57 557.44,736.57 606.48,691.99 653.56,737.81 
				689.58,737.81 			"/>
			<g>
				<path class="st7" d="M416.4,714.25v-10.42c-5.23,0.23-9.39,4.54-9.39,9.82v0.6H416.4z"/>
				<path class="st7" d="M417.27,714.25h9.39v-0.6c0-5.28-4.17-9.59-9.39-9.82V714.25z"/>
				<rect x="407" y="715.12" class="st7" width="9.39" height="8.35"/>
				<rect x="417.27" y="715.12" class="st7" width="9.39" height="8.35"/>
			</g>
			<g>
				<path class="st7" d="M606.08,720.17v-7.63c-3.83,0.17-6.88,3.32-6.88,7.19v0.44H606.08z"/>
				<path class="st7" d="M606.72,720.17h6.88v-0.44c0-3.87-3.05-7.02-6.88-7.19V720.17z"/>
				<rect x="599.2" y="720.81" class="st7" width="6.88" height="6.12"/>
				<rect x="606.72" y="720.81" class="st7" width="6.88" height="6.12"/>
			</g>
			<g>
				<path class="st7" d="M545.28,690.42v-4c-2.01,0.09-3.61,1.74-3.61,3.77v0.23H545.28z"/>
				<path class="st7" d="M545.61,690.42h3.61v-0.23c0-2.03-1.6-3.68-3.61-3.77V690.42z"/>
				<rect x="541.67" y="690.75" class="st7" width="3.61" height="3.21"/>
				<rect x="545.61" y="690.75" class="st7" width="3.61" height="3.21"/>
			</g>
			<polygon class="st14" points="351.74,743.41 416.4,680.64 355.98,743.41 			"/>
			<polygon class="st14" points="484.28,742.34 418.2,681.4 480.05,742.44 			"/>
			<polygon class="st14" points="562.57,742.25 606.08,700.79 565.23,742.25 			"/>
			<polygon class="st14" points="648.28,743.24 606.22,700.67 645.61,743.15 			"/>
		</g>
	</g>
</g>
</svg>
