<svg width="25" height="24" viewBox="0 0 25 24" fill="none" xmlns="http://www.w3.org/2000/svg">
<path d="M21.3333 10C21.3333 17 12.3333 23 12.3333 23C12.3333 23 3.33325 17 3.33325 10C3.33325 7.61305 4.28146 5.32387 5.96929 3.63604C7.65712 1.94821 9.9463 1 12.3333 1C14.7202 1 17.0094 1.94821 18.6972 3.63604C20.385 5.32387 21.3333 7.61305 21.3333 10Z" stroke="white" stroke-width="2" stroke-linecap="round" stroke-linejoin="round"/>
<path d="M12.3333 13C13.9901 13 15.3333 11.6569 15.3333 10C15.3333 8.34315 13.9901 7 12.3333 7C10.6764 7 9.33325 8.34315 9.33325 10C9.33325 11.6569 10.6764 13 12.3333 13Z" stroke="white" stroke-width="2" stroke-linecap="round" stroke-linejoin="round"/>
</svg>
