<svg width="25" height="24" viewBox="0 0 25 24" fill="none" xmlns="http://www.w3.org/2000/svg">
<g clip-path="url(#clip0)">
<path d="M16.6665 21V19C16.6665 17.9391 16.2451 16.9217 15.4949 16.1716C14.7448 15.4214 13.7274 15 12.6665 15H5.6665C4.60564 15 3.58822 15.4214 2.83808 16.1716C2.08793 16.9217 1.6665 17.9391 1.6665 19V21" stroke="white" stroke-width="2" stroke-linecap="round" stroke-linejoin="round"/>
<path d="M17.6665 11L19.6665 13L23.6665 9" stroke="white" stroke-width="2" stroke-linecap="round" stroke-linejoin="round"/>
<path d="M9.1665 11C11.3756 11 13.1665 9.20914 13.1665 7C13.1665 4.79086 11.3756 3 9.1665 3C6.95736 3 5.1665 4.79086 5.1665 7C5.1665 9.20914 6.95736 11 9.1665 11Z" stroke="white" stroke-width="2" stroke-linecap="round" stroke-linejoin="round"/>
</g>
<defs>
<clipPath id="clip0">
<rect width="24" height="24" fill="white" transform="translate(0.666504)"/>
</clipPath>
</defs>
</svg>
