<svg width="25" height="24" viewBox="0 0 25 24" fill="none" xmlns="http://www.w3.org/2000/svg">
<path d="M16.3333 4H18.3333C18.8638 4 19.3725 4.21071 19.7475 4.58579C20.1226 4.96086 20.3333 5.46957 20.3333 6V20C20.3333 20.5304 20.1226 21.0391 19.7475 21.4142C19.3725 21.7893 18.8638 22 18.3333 22H6.33333C5.8029 22 5.29419 21.7893 4.91911 21.4142C4.54404 21.0391 4.33333 20.5304 4.33333 20V6C4.33333 5.46957 4.54404 4.96086 4.91911 4.58579C5.29419 4.21071 5.8029 4 6.33333 4H8.33333" stroke="white" stroke-width="2" stroke-linecap="round" stroke-linejoin="round"/>
<path d="M15.3333 2H9.33333C8.78104 2 8.33333 2.44772 8.33333 3V5C8.33333 5.55228 8.78104 6 9.33333 6H15.3333C15.8856 6 16.3333 5.55228 16.3333 5V3C16.3333 2.44772 15.8856 2 15.3333 2Z" stroke="white" stroke-width="2" stroke-linecap="round" stroke-linejoin="round"/>
</svg>
