<?xml version="1.0" encoding="utf-8"?>
<!-- Generator: Adobe Illustrator 24.3.0, SVG Export Plug-In . SVG Version: 6.00 Build 0)  -->
<svg version="1.1" id="Layer_1" xmlns="http://www.w3.org/2000/svg" xmlns:xlink="http://www.w3.org/1999/xlink" x="0px" y="0px"
	 viewBox="0 0 1000 1000" style="enable-background:new 0 0 1000 1000;" xml:space="preserve">
<style type="text/css">
	.st0{fill:#5D6F7A;}
	.st1{fill:none;stroke:#FFFFFF;stroke-width:33.0986;stroke-miterlimit:10;}
	.st2{fill:#FFFFFF;}
	.st3{font-family:'Gotham-Book';}
	.st4{font-size:73.4376px;}
	.st5{font-family:'Gotham-Bold';}
	.st6{font-size:142.4767px;}
	.st7{fill:#28373E;}
	.st8{font-size:112.8654px;}
	.st9{font-size:26.013px;}
	.st10{letter-spacing:9;}
	.st11{fill:url(#SVGID_1_);}
	.st12{fill:url(#SVGID_2_);}
	.st13{fill:url(#SVGID_3_);}
	.st14{fill:#5A6163;}
	.st15{font-size:175.4539px;}
</style>
<g>
	<circle class="st0" cx="500" cy="500" r="500"/>
	<circle class="st1" cx="500" cy="500" r="443.66"/>
	<text transform="matrix(1 0 0 1 199.6489 450.293)" class="st2 st3 st4">SUPER SERVICE</text>
	<text transform="matrix(1 0 0 1 199.6489 280.5059)" class="st3 st4">SUPER SERVICE</text>
	<text transform="matrix(1 0 0 1 201.8501 588.1943)" class="st2 st5 st6">AWARD</text>
	<g>
		<path class="st2" d="M500,892.25c166.17,0,308.11-103.38,365.26-249.3H134.74C191.89,788.87,333.83,892.25,500,892.25z"/>
		<path class="st2" d="M500,107.75c-158.31,0-294.62,93.83-356.59,228.87h713.18C794.62,201.58,658.31,107.75,500,107.75z"/>
	</g>
	<g>
		<text transform="matrix(1 0 0 1 348.7085 283.5684)" class="st7 st5 st8">idaho</text>
		<text transform="matrix(1 0 0 1 354.9248 313.4785)" class="st7 st3 st9 st10">ROOFING COST</text>
		<g>
			<polygon class="st7" points="523.48,162.43 520.04,159.24 542.78,134.7 568.2,155.9 565.2,159.51 543.19,141.15 			"/>
			<linearGradient id="SVGID_1_" gradientUnits="userSpaceOnUse" x1="504.4364" y1="146.2582" x2="542.9832" y2="146.2582">
				<stop  offset="0" style="stop-color:#4E73D1"/>
				<stop  offset="1" style="stop-color:#269BD6"/>
			</linearGradient>
			<polygon class="st11" points="542.98,134.8 504.44,142.62 521.76,157.71 			"/>
			<linearGradient id="SVGID_2_" gradientUnits="userSpaceOnUse" x1="594.5526" y1="169.1835" x2="521.1053" y2="169.1835">
				<stop  offset="0" style="stop-color:#4E73D1"/>
				<stop  offset="1" style="stop-color:#269BD6"/>
			</linearGradient>
			<polygon class="st12" points="521.11,161.37 594.55,150.43 554.31,187.94 			"/>
			<linearGradient id="SVGID_3_" gradientUnits="userSpaceOnUse" x1="436.1982" y1="160.3281" x2="554.4431" y2="160.3281">
				<stop  offset="0" style="stop-color:#4E73D1"/>
				<stop  offset="0.3209" style="stop-color:#467BD2"/>
				<stop  offset="0.8232" style="stop-color:#3091D5"/>
				<stop  offset="1" style="stop-color:#269BD6"/>
			</linearGradient>
			<polygon class="st13" points="436.2,132.72 506,143.14 554.44,187.94 495.32,187.94 			"/>
			<polygon class="st7" points="664.2,193.41 632.12,193.41 594.5,156.77 555.35,192.36 494.41,192.36 436.23,139.05 379.06,193.41 
				355.78,193.41 355.78,188.72 377.19,188.72 436.17,132.64 496.23,187.68 553.54,187.68 594.61,150.34 634.03,188.72 
				664.2,188.72 			"/>
			<g>
				<path class="st7" d="M435.41,168.98v-8.73c-4.38,0.19-7.87,3.8-7.87,8.22v0.5H435.41z"/>
				<path class="st7" d="M436.15,168.98h7.87v-0.5c0-4.42-3.49-8.03-7.87-8.22V168.98z"/>
				<rect x="427.55" y="169.71" class="st7" width="7.87" height="7"/>
				<rect x="436.15" y="169.71" class="st7" width="7.87" height="7"/>
			</g>
			<g>
				<path class="st7" d="M594.27,173.94v-6.39c-3.21,0.14-5.76,2.78-5.76,6.02v0.37H594.27z"/>
				<path class="st7" d="M594.81,173.94h5.76v-0.37c0-3.24-2.56-5.88-5.76-6.02V173.94z"/>
				<rect x="588.51" y="174.48" class="st7" width="5.76" height="5.12"/>
				<rect x="594.81" y="174.48" class="st7" width="5.76" height="5.12"/>
			</g>
			<g>
				<path class="st7" d="M543.35,149.02v-3.35c-1.68,0.07-3.02,1.46-3.02,3.16v0.19H543.35z"/>
				<path class="st7" d="M543.63,149.02h3.02v-0.19c0-1.7-1.34-3.09-3.02-3.16V149.02z"/>
				<rect x="540.33" y="149.31" class="st7" width="3.02" height="2.69"/>
				<rect x="543.63" y="149.31" class="st7" width="3.02" height="2.69"/>
			</g>
			<polygon class="st14" points="381.27,193.41 435.41,140.83 384.82,193.41 			"/>
			<polygon class="st14" points="492.27,192.51 436.93,141.47 488.72,192.59 			"/>
			<polygon class="st14" points="557.83,192.44 594.27,157.71 560.06,192.44 			"/>
			<polygon class="st14" points="629.61,193.26 594.38,157.61 627.38,193.18 			"/>
		</g>
	</g>
	<text transform="matrix(1 0 0 1 292.8726 798.9365)" class="st0 st5 st15">2021</text>
</g>
</svg>
