<?xml version="1.0" encoding="utf-8"?>
<!-- Generator: Adobe Illustrator 24.3.0, SVG Export Plug-In . SVG Version: 6.00 Build 0)  -->
<svg version="1.1" id="Layer_1" xmlns="http://www.w3.org/2000/svg" xmlns:xlink="http://www.w3.org/1999/xlink" x="0px" y="0px"
	 viewBox="0 0 1000 1000" style="enable-background:new 0 0 1000 1000;" xml:space="preserve">
<style type="text/css">
	.st0{fill:none;stroke:#5D6F7A;stroke-width:26.7781;stroke-miterlimit:10;}
	.st1{fill:#5D6F7A;}
	.st2{fill:#F7901E;}
	.st3{fill:#FFFFFF;}
	.st4{fill:#28373E;}
	.st5{font-family:'Gotham-Bold';}
	.st6{font-size:129.8676px;}
	.st7{font-family:'Gotham-Book';}
	.st8{font-size:29.9316px;}
	.st9{letter-spacing:10;}
	.st10{fill:url(#SVGID_1_);}
	.st11{fill:url(#SVGID_2_);}
	.st12{fill:url(#SVGID_3_);}
	.st13{fill:#5A6163;}
	.st14{font-size:121.1168px;}
</style>
<g>
	<path class="st0" d="M893.83,836.34L526.61,982.21c-14.75,5.86-31.18,5.91-45.97,0.13l-374.2-146.11
		C87.48,828.83,75,810.56,75,790.2V111.4c0-51.94,42.1-94.04,94.04-94.04h661.91c51.94,0,94.04,42.1,94.04,94.04v679.01
		C925,810.66,912.65,828.86,893.83,836.34z"/>
	<path class="st1" d="M75,625.02h850v165.39c0,20.25-12.35,38.45-31.17,45.93L526.61,982.21c-14.75,5.86-31.18,5.91-45.97,0.13
		l-374.2-146.11C87.48,828.83,75,810.56,75,790.2V625.02z"/>
	<g>
		<path class="st2" d="M847.19,734.23c-2.44,0-4.89-0.61-7.08-1.76l-42.54-22.36l-42.54,22.36c-2.19,1.15-4.64,1.76-7.08,1.76
			c-4.49,0-8.74-1.98-11.66-5.44c-2.89-3.42-4.11-7.93-3.35-12.37l8.12-47.37l-34.41-33.54c-4.18-4.07-5.66-10.05-3.85-15.6
			c1.8-5.55,6.51-9.52,12.29-10.36l47.56-6.91l21.27-43.1c2.58-5.23,7.81-8.48,13.65-8.48c5.84,0,11.07,3.25,13.65,8.48l21.27,43.1
			l47.56,6.91c5.78,0.84,10.48,4.81,12.29,10.36c1.8,5.55,0.33,11.53-3.85,15.6l-34.41,33.54l8.12,47.37
			c0.76,4.43-0.46,8.94-3.35,12.37C855.93,732.24,851.68,734.23,847.19,734.23z"/>
		<path class="st3" d="M797.57,561.1c1.85,0,3.69,0.96,4.64,2.89l23.61,47.83l52.78,7.67c4.25,0.62,5.94,5.84,2.87,8.83
			l-38.19,37.23l9.02,52.57c0.57,3.35-2.09,6.07-5.1,6.07c-0.8,0-1.62-0.19-2.41-0.61l-47.21-24.82l-47.21,24.82
			c-0.79,0.42-1.61,0.61-2.41,0.61c-3.02,0-5.68-2.72-5.1-6.07l9.02-52.57l-38.19-37.23c-3.07-3-1.38-8.22,2.87-8.83l52.78-7.67
			l23.61-47.83C793.88,562.06,795.72,561.1,797.57,561.1 M797.57,541.01c-9.69,0-18.37,5.4-22.65,14.08l-18.93,38.36l-42.33,6.15
			c-9.59,1.39-17.4,7.98-20.39,17.19c-2.99,9.21-0.54,19.14,6.39,25.9l30.63,29.86l-7.23,42.16c-1.26,7.36,0.77,14.85,5.57,20.54
			c4.83,5.72,11.87,9.01,19.33,9.01c4.07,0,8.13-1.01,11.76-2.91l37.87-19.91l37.86,19.91c3.63,1.91,7.69,2.91,11.76,2.91
			c7.46,0,14.51-3.28,19.33-9.01c4.8-5.69,6.83-13.18,5.56-20.54l-7.23-42.16l30.63-29.86c6.94-6.76,9.39-16.68,6.39-25.9
			c-2.99-9.21-10.81-15.8-20.39-17.19l-42.33-6.15l-18.93-38.36C815.94,546.41,807.26,541.01,797.57,541.01L797.57,541.01z"/>
	</g>
	<g>
		<path class="st2" d="M259.21,734.23c-2.44,0-4.89-0.61-7.08-1.76l-42.54-22.36l-42.54,22.36c-2.19,1.15-4.64,1.76-7.08,1.76
			c-4.49,0-8.74-1.98-11.66-5.44c-2.89-3.42-4.11-7.93-3.35-12.37l8.12-47.37l-34.41-33.54c-4.18-4.08-5.65-10.05-3.85-15.6
			c1.8-5.55,6.51-9.52,12.29-10.36l47.56-6.91l21.27-43.1c2.58-5.23,7.81-8.48,13.65-8.48c5.84,0,11.07,3.25,13.65,8.48l21.27,43.1
			l47.56,6.91c5.78,0.84,10.48,4.81,12.29,10.36c1.8,5.55,0.33,11.53-3.85,15.6l-34.41,33.54l8.12,47.37
			c0.76,4.43-0.46,8.94-3.35,12.37C267.95,732.24,263.71,734.23,259.21,734.23z"/>
		<path class="st3" d="M209.59,561.1c1.85,0,3.69,0.96,4.64,2.89l23.61,47.83l52.78,7.67c4.25,0.62,5.94,5.84,2.87,8.83
			l-38.19,37.23l9.02,52.57c0.57,3.35-2.09,6.07-5.1,6.07c-0.8,0-1.62-0.19-2.41-0.61l-47.21-24.82l-47.21,24.82
			c-0.79,0.42-1.61,0.61-2.41,0.61c-3.02,0-5.68-2.72-5.1-6.07l9.02-52.57l-38.19-37.23c-3.07-3-1.38-8.22,2.87-8.83l52.78-7.67
			l23.61-47.83C205.9,562.06,207.74,561.1,209.59,561.1 M209.59,541.01c-9.69,0-18.37,5.4-22.65,14.08L168,593.46l-42.33,6.15
			c-9.59,1.39-17.4,7.98-20.39,17.19c-2.99,9.21-0.54,19.14,6.39,25.9l30.63,29.86l-7.23,42.16c-1.26,7.36,0.77,14.85,5.56,20.54
			c4.83,5.72,11.87,9.01,19.33,9.01c4.07,0,8.13-1.01,11.76-2.91l37.87-19.91l37.86,19.91c3.63,1.91,7.69,2.91,11.76,2.91
			c7.46,0,14.51-3.28,19.33-9.01c4.8-5.69,6.83-13.18,5.56-20.54l-7.23-42.16l30.63-29.86c6.94-6.76,9.39-16.68,6.39-25.9
			c-2.99-9.21-10.81-15.8-20.39-17.19l-42.33-6.15l-18.93-38.36C227.96,546.41,219.28,541.01,209.59,541.01L209.59,541.01z"/>
	</g>
	<g>
		<path class="st2" d="M732.24,767.7c-2.72,0-5.45-0.68-7.89-1.96l-58.25-30.62l-58.25,30.62c-2.44,1.28-5.17,1.96-7.89,1.96
			c-5,0-9.73-2.21-12.98-6.06c-3.21-3.81-4.57-8.83-3.72-13.76l11.12-64.86l-47.12-45.93c-4.65-4.53-6.3-11.19-4.29-17.37
			c2.01-6.18,7.25-10.6,13.68-11.53l65.12-9.46l29.12-59.01c2.88-5.83,8.7-9.45,15.2-9.45s12.32,3.62,15.2,9.45l29.12,59.01
			l65.12,9.46c6.43,0.93,11.67,5.35,13.68,11.53c2.01,6.18,0.36,12.84-4.29,17.37l-47.12,45.93l11.12,64.86
			c0.85,4.94-0.51,9.95-3.72,13.76C741.97,765.49,737.24,767.7,732.24,767.7z"/>
		<path class="st3" d="M666.1,540.3c2.46,0,4.92,1.28,6.19,3.85l31.46,63.75l70.35,10.22c5.66,0.82,7.92,7.78,3.83,11.77
			l-50.9,49.62l12.02,70.06c0.77,4.46-2.78,8.09-6.8,8.09c-1.06,0-2.16-0.25-3.21-0.81l-62.92-33.08l-62.92,33.08
			c-1.06,0.56-2.15,0.81-3.21,0.81c-4.02,0-7.57-3.62-6.8-8.09l12.02-70.06l-50.9-49.62c-4.1-3.99-1.84-10.95,3.83-11.77
			l70.35-10.22l31.46-63.75C661.18,541.58,663.64,540.3,666.1,540.3 M666.1,520.22c-10.35,0-19.62,5.76-24.2,15.04l-26.79,54.28
			l-59.9,8.7c-10.24,1.49-18.59,8.53-21.79,18.37c-3.2,9.84-0.58,20.44,6.83,27.66l43.34,42.25l-10.23,59.66
			c-1.35,7.86,0.82,15.86,5.94,21.93c5.16,6.12,12.69,9.63,20.66,9.63c4.34,0,8.68-1.08,12.56-3.12l53.57-28.17l53.57,28.17
			c3.88,2.04,8.22,3.12,12.56,3.12c7.97,0,15.5-3.51,20.66-9.63c5.12-6.08,7.29-14.07,5.94-21.93l-10.23-59.66l43.34-42.25
			c7.41-7.22,10.03-17.82,6.83-27.66c-3.2-9.84-11.55-16.88-21.79-18.37l-59.9-8.7l-26.79-54.28
			C685.72,525.98,676.45,520.22,666.1,520.22L666.1,520.22z"/>
	</g>
	<g>
		<path class="st2" d="M407.48,767.7c-2.72,0-5.45-0.68-7.89-1.96l-58.25-30.62l-58.25,30.62c-2.44,1.28-5.17,1.96-7.89,1.96
			c-5,0-9.73-2.21-12.98-6.06c-3.21-3.81-4.57-8.82-3.72-13.76l11.12-64.86l-47.12-45.93c-4.65-4.53-6.3-11.19-4.29-17.37
			c2.01-6.18,7.25-10.6,13.68-11.53l65.12-9.46l29.12-59.01c2.88-5.83,8.7-9.45,15.2-9.45c6.5,0,12.32,3.62,15.19,9.45l29.12,59.01
			l65.12,9.46c6.43,0.93,11.67,5.35,13.68,11.53c2.01,6.18,0.36,12.84-4.29,17.37l-47.12,45.93l11.12,64.86
			c0.85,4.94-0.51,9.95-3.72,13.76C417.21,765.49,412.48,767.7,407.48,767.7z"/>
		<path class="st3" d="M341.34,540.3c2.46,0,4.92,1.28,6.19,3.85L379,607.89l70.35,10.22c5.66,0.82,7.92,7.78,3.83,11.77
			l-50.9,49.62l12.02,70.06c0.77,4.46-2.78,8.09-6.8,8.09c-1.06,0-2.16-0.25-3.21-0.81l-62.92-33.08l-62.92,33.08
			c-1.06,0.56-2.15,0.81-3.21,0.81c-4.02,0-7.57-3.62-6.8-8.09l12.02-70.06l-50.9-49.62c-4.1-3.99-1.84-10.95,3.83-11.77
			l70.35-10.22l31.46-63.75C336.42,541.58,338.88,540.3,341.34,540.3 M341.34,520.22c-10.35,0-19.62,5.76-24.2,15.04l-26.79,54.28
			l-59.9,8.7c-10.24,1.49-18.59,8.53-21.79,18.37c-3.2,9.84-0.58,20.44,6.83,27.66l43.34,42.25l-10.23,59.66
			c-1.35,7.86,0.82,15.86,5.94,21.93c5.16,6.12,12.69,9.63,20.66,9.63c4.34,0,8.68-1.08,12.56-3.12l53.57-28.17l53.57,28.17
			c3.88,2.04,8.22,3.12,12.56,3.12c7.97,0,15.5-3.51,20.66-9.63c5.12-6.08,7.29-14.07,5.94-21.93l-10.23-59.66l43.34-42.25
			c7.41-7.22,10.03-17.82,6.83-27.66c-3.2-9.84-11.55-16.88-21.79-18.37l-59.9-8.7l-26.79-54.28
			C360.97,525.98,351.69,520.22,341.34,520.22L341.34,520.22z"/>
	</g>
	<g>
		<path class="st2" d="M585.42,787.79c-3.03,0-6.08-0.76-8.81-2.19l-76.31-40.12L424,785.59c-2.73,1.43-5.78,2.19-8.81,2.19
			c-5.59,0-10.87-2.47-14.5-6.78c-3.58-4.25-5.1-9.85-4.15-15.37l14.57-84.97l-61.73-60.18c-5.2-5.06-7.03-12.5-4.79-19.4
			s8.1-11.84,15.28-12.88l85.31-12.4l38.15-77.31c3.21-6.51,9.71-10.55,16.97-10.55s13.76,4.04,16.97,10.55l38.15,77.31l85.32,12.4
			c7.18,1.04,13.04,5.98,15.28,12.88c2.24,6.9,0.41,14.34-4.79,19.4l-61.73,60.18l14.57,84.97c0.95,5.52-0.57,11.12-4.15,15.37
			C596.29,785.31,591.01,787.79,585.42,787.79z"/>
		<path class="st3" d="M500.3,498c3.17,0,6.34,1.65,7.97,4.95l40.49,82.04l90.54,13.16c7.29,1.06,10.2,10.01,4.92,15.15
			l-65.51,63.86l15.47,90.17c0.98,5.74-3.58,10.41-8.76,10.41c-1.37,0-2.78-0.32-4.14-1.04l-80.98-42.57l-80.98,42.57
			c-1.36,0.72-2.77,1.04-4.14,1.04c-5.18,0-9.74-4.66-8.76-10.41l15.47-90.17l-65.51-63.86c-5.27-5.14-2.36-14.1,4.92-15.15
			l90.54-13.16l40.49-82.04C493.97,499.65,497.14,498,500.3,498 M500.3,477.91c-11.11,0-21.06,6.19-25.98,16.15l-35.82,72.57
			l-80.09,11.64c-10.99,1.6-19.95,9.15-23.38,19.72c-3.43,10.56-0.62,21.94,7.33,29.7l57.95,56.49l-13.68,79.77
			c-1.45,8.44,0.87,17.02,6.37,23.54c5.54,6.58,13.63,10.35,22.18,10.35c4.65,0,9.32-1.16,13.48-3.35l71.63-37.66l71.63,37.66
			c4.16,2.19,8.83,3.35,13.48,3.35c8.55,0,16.64-3.77,22.18-10.35c5.5-6.52,7.82-15.1,6.37-23.54l-13.68-79.77l57.95-56.49
			c7.95-7.75,10.76-19.13,7.33-29.7c-3.43-10.56-12.39-18.12-23.38-19.72l-80.09-11.64l-35.82-72.57
			C521.37,484.1,511.41,477.91,500.3,477.91L500.3,477.91z"/>
	</g>
	<g>
		<text transform="matrix(1 0 0 1 312.6455 229.6226)" class="st4 st5 st6">idaho</text>
		<text transform="matrix(1 0 0 1 319.7969 264.043)" class="st4 st7 st8 st9">ROOFING COST</text>
		<g>
			<polygon class="st4" points="513.74,90.24 509.78,86.58 535.95,58.34 565.2,82.73 561.75,86.88 536.42,65.76 			"/>
			<linearGradient id="SVGID_1_" gradientUnits="userSpaceOnUse" x1="491.8307" y1="71.6351" x2="536.1843" y2="71.6351">
				<stop  offset="0" style="stop-color:#4E73D1"/>
				<stop  offset="1" style="stop-color:#269BD6"/>
			</linearGradient>
			<polygon class="st10" points="536.18,58.46 491.83,67.45 511.76,84.81 			"/>
			<linearGradient id="SVGID_2_" gradientUnits="userSpaceOnUse" x1="595.5221" y1="98.0139" x2="511.0107" y2="98.0139">
				<stop  offset="0" style="stop-color:#4E73D1"/>
				<stop  offset="1" style="stop-color:#269BD6"/>
			</linearGradient>
			<polygon class="st11" points="511.01,89.02 595.52,76.44 549.22,119.59 			"/>
			<linearGradient id="SVGID_3_" gradientUnits="userSpaceOnUse" x1="413.313" y1="87.8246" x2="549.3704" y2="87.8246">
				<stop  offset="0" style="stop-color:#4E73D1"/>
				<stop  offset="0.3209" style="stop-color:#467BD2"/>
				<stop  offset="0.8232" style="stop-color:#3091D5"/>
				<stop  offset="1" style="stop-color:#269BD6"/>
			</linearGradient>
			<polygon class="st12" points="413.31,56.06 493.63,68.05 549.37,119.59 481.34,119.59 			"/>
			<polygon class="st4" points="675.66,125.88 638.75,125.88 595.46,83.74 550.41,124.69 480.29,124.69 413.35,63.34 347.57,125.88 
				320.78,125.88 320.78,120.49 345.41,120.49 413.28,55.96 482.39,119.29 548.33,119.29 595.59,76.33 640.95,120.49 675.66,120.49 
							"/>
			<g>
				<path class="st4" d="M412.41,97.78V87.74c-5.04,0.22-9.05,4.37-9.05,9.46v0.58H412.41z"/>
				<path class="st4" d="M413.25,97.78h9.05V97.2c0-5.09-4.01-9.24-9.05-9.46V97.78z"/>
				<rect x="403.36" y="98.62" class="st4" width="9.05" height="8.05"/>
				<rect x="413.25" y="98.62" class="st4" width="9.05" height="8.05"/>
			</g>
			<g>
				<path class="st4" d="M595.2,103.49v-7.35c-3.69,0.16-6.63,3.2-6.63,6.93v0.42H595.2z"/>
				<path class="st4" d="M595.81,103.49h6.63v-0.42c0-3.73-2.94-6.77-6.63-6.93V103.49z"/>
				<rect x="588.57" y="104.1" class="st4" width="6.63" height="5.9"/>
				<rect x="595.81" y="104.1" class="st4" width="6.63" height="5.9"/>
			</g>
			<g>
				<path class="st4" d="M536.6,74.82v-3.86c-1.93,0.08-3.48,1.68-3.48,3.64v0.22H536.6z"/>
				<path class="st4" d="M536.93,74.82h3.48V74.6c0-1.96-1.54-3.55-3.48-3.64V74.82z"/>
				<rect x="533.13" y="75.14" class="st4" width="3.48" height="3.09"/>
				<rect x="536.93" y="75.14" class="st4" width="3.48" height="3.09"/>
			</g>
			<polygon class="st13" points="350.11,125.88 412.41,65.39 354.19,125.88 			"/>
			<polygon class="st13" points="477.83,124.85 414.15,66.12 473.75,124.95 			"/>
			<polygon class="st13" points="553.27,124.77 595.2,84.81 555.84,124.77 			"/>
			<polygon class="st13" points="635.86,125.72 595.33,84.7 633.29,125.63 			"/>
		</g>
	</g>
	<text transform="matrix(1 0 0 1 131.8682 435.7456)" class="st2 st5 st14">TOP RATED</text>
</g>
</svg>
